<svg xmlns="http://www.w3.org/2000/svg" width="26" height="26" viewBox="0 0 26 26"><path d="M7.96875.15625a1.0001 1.0001.0 00-.4375.1875C4.3212815 2.4513161 2.1875 6.0682531 2.1875 10.1875c0 6.171468 4.7679323 11.243566 10.8125 11.75V23.125c-2.013366.231385-3.46875 1.0625-3.46875 1.0625A.94309432.94309432.0 0010 25.9375h8a.94309432.94309432.0 00.46875-1.75S17.013366 23.356385 15 23.125V21.96875C17.002683 21.797583 18.87666 21.111087 20.46875 20.0625A1.0001 1.0001.0 1019.375 18.40625c-1.492928.983276-3.268336 1.558898-5.1875 1.59375a1.0001 1.0001.0 00-.375.0C8.4754646 19.899209 4.1875 15.548913 4.1875 10.1875 4.1875 6.7527469 5.9589685 3.7504339 8.625 2A1.0001 1.0001.0 007.96875.15625zM14 1.1875c-1.606562.0-3.106333.429936-4.40625 1.1875-.1285214.057588-.2527446.1401053-.375.21875C9.0571811 2.6976843 8.9140825 2.8087123 8.78125 2.9375 6.6158819 4.54635 5.1875 7.1079765 5.1875 10c0 1.712774.4910976 3.300396 1.34375 4.65625a.80176198.80176198.0 00.125.1875C8.2380463 17.221351 10.943267 18.8125 14 18.8125c1.762953.0 3.400636-.507104999999999 4.78125-1.40625C18.826612 17.37707 18.863198 17.343722 18.90625 17.3125 21.25119 15.725471 22.8125 13.031644 22.8125 10 22.8125 8.3277871 22.34705 6.7725512 21.53125 5.4375a.80008001.80008001.0 00-.21875-.34375C21.304493 5.0819191 21.289313 5.0742902 21.28125 5.0625A.80008001.80008001.0 0021.21875 5C19.623193 2.7144933 16.985757 1.1875 14 1.1875zm0 1.625c.656326999999999.0 1.303247.0871814 1.90625.25l-1.09375.71875C14.451742 3.5008953 14.082724 3.2472118 13.71875 3.03125 13.602227 2.962112 13.492859 2.9064393 13.375 2.84375 13.578072 2.8267102 13.792328 2.8125 14 2.8125zm-3.09375.90625C11.44264 3.7093327 12.123751 3.9107089 12.90625 4.375c.148377.0880386.317421.2069025.46875.3125L9.4375 7.21875C9.4044949 7.0386331 9.3622113 6.8577887 9.34375 6.6875c-.1569065-1.4473191.215916-2.3863306.78125-2.75C10.13267 3.932611 10.14856 3.9423606 10.15625 3.9375c.208008-.1263954.441113-.2133269.75-.21875zm6.75.125a.80008001.80008001.0 00.03125.0c.728308999999999.4345435 1.375951.9690602 1.90625 1.625l-2 1.28125C17.105465 6.0657847 16.605125 5.4231535 16.0625 4.875l1.59375-1.03125zm-3 1.9375C15.193559 6.3099956 15.722045 6.9332503 16.21875 7.625L10.9375 11.03125C10.51276 10.29262 10.165992 9.5522818 9.90625 8.84375l4.75-3.0625zM7.75 6.4375C7.758208 6.5732097 7.7663728 6.7065212 7.78125 6.84375c.0448303000000001.4135173.1472832.8447013.25 1.28125l-1.125.71875c.1370813-.8666828.4281724-1.6736678.84375-2.40625zm12.6875.375c.360592.7328096.625834999999999 1.524994.71875 2.375a.80008001.80008001.0 00-.0625.0625L19.5 10.28125C19.229579 9.5619589 18.884991 8.8206617 18.46875 8.09375L20.4375 6.8125zM17.09375 8.96875C17.519338 9.7121102 17.866697 10.444329 18.125 11.15625l-4.78125 3.0625C12.806441 13.690004 12.277955 13.06675 11.78125 12.375l5.3125-3.40625zM8.5 9.71875C8.7735546 10.441997 9.141633 11.17578 9.5625 11.90625l-2 1.28125C7.1975796 12.445894 6.9342136 11.642568 6.84375 10.78125L8.5 9.71875zm12.59375 1.4375C20.956669 12.022933 20.665578 12.829918 20.25 13.5625 20.24173 13.416545 20.234767 13.272746 20.21875 13.125 20.175168 12.722994 20.098291 12.29888 20 11.875l1.09375-.71875zm-2.53125 1.625C18.594281 12.956451 18.638269 13.14664 18.65625 13.3125 18.813157 14.759819 18.440335 15.667581 17.875 16.03125 17.309666 16.39492 16.345749 16.367865 15.09375 15.625 14.945373 15.536961 14.776329 15.418098 14.625 15.3125l3.9375-2.53125zM10.40625 13.25c.4932.688819000000001 1.014451 1.324801 1.5625 1.875L10.3125 16.1875C9.5858624 15.756131 8.93682 15.214085 8.40625 14.5625l2-1.3125zm2.8125 2.96875C13.567925 16.487949 13.929184 16.728604 14.28125 16.9375 14.418548 17.018965 14.548402 17.083812 14.6875 17.15625 14.464709 17.176819 14.228396 17.1875 14 17.1875 13.343673 17.1875 12.696753 17.100319 12.09375 16.9375l1.125-.71875z"/></svg>